<?xml version="1.0" encoding="UTF-8"?>
<svg width="685px" height="685px" viewBox="0 0 685 685" version="1.1" xmlns="http://www.w3.org/2000/svg" xmlns:xlink="http://www.w3.org/1999/xlink">
    <title>launch</title>
    <defs>
        <linearGradient x1="160.365117%" y1="-96.9809474%" x2="9.22487389%" y2="89.5850628%" id="linearGradient-1">
            <stop stop-color="#FF7000" offset="0%"></stop>
            <stop stop-color="#FFE14D" offset="100%"></stop>
        </linearGradient>
    </defs>
    <g id="Logo" stroke="none" stroke-width="1" fill="none" fill-rule="evenodd">
        <g id="launch">
            <rect id="Rectangle-Copy-120" fill="url(#linearGradient-1)" x="0" y="0" width="685" height="685" rx="161.223572"></rect>
            <g id="Group-20-Copy-15" transform="translate(172.000000, 110.000000)" fill="#26292B" fill-rule="nonzero">
                <g id="Group-19">
                    <path d="M346.989982,148.569372 C347.28741,174.322858 340.957115,199.708837 328.625545,222.2151 C316.36705,244.302508 297.886087,262.019765 273.182657,275.36687 C248.479226,288.713975 218.260249,295.355974 182.525727,295.292867 L122.212067,295.292867 C74.0869875,295.292867 0.675848853,307.338393 0.675848853,338.434308 L0.116525892,317.727363 C0.102044723,308.027991 4.66967862,298.910045 12.3983259,293.21034 L62.5975617,256.576797 C67.421548,253.043884 69.1023411,246.534405 66.6060429,241.052504 L110.093403,209.293967 C141.886869,247.74704 197.747578,254.228709 237.264166,224.049934 C276.780755,193.871158 286.146387,137.576205 258.585675,95.8905828 C231.024962,54.2049604 176.167438,41.6933518 133.698729,67.4070412 C91.2300209,93.1207307 75.9884168,148.075524 99.0001644,192.515425 L54.9767863,224.581608 C50.6692429,220.412474 44.0465498,219.954857 39.2225229,223.493015 L4.0084815,249.193292 C3.23328667,249.750817 2.2165294,249.822559 1.37284867,249.379261 C0.52916795,248.935962 0,248.051707 0,247.087099 L0,177.488099 C0,79.4641288 78.2554439,0 174.788426,0 L182.432506,0 C217.747536,0 247.756767,6.31068798 272.460198,18.9320639 C297.163629,31.5534399 315.74558,49.0498223 328.206053,71.4212112 C340.744209,93.7768234 347.005519,119.492877 346.989982,148.569372 Z" id="Path-Copy-3"></path>
                    <path d="M122.21207,319.442653 L122.21207,345.994981 C122.218249,378.880981 109.357378,410.422203 86.4593518,433.678336 C63.5613261,456.934468 32.5023151,470 0.116388388,470 L0.116388388,350.160035 C2.74999404e-07,319.06412 73.9704619,319.442653 122.21207,319.442653 Z" id="Path-Copy-4"></path>
                </g>
            </g>
        </g>
    </g>
</svg>