<?xml version="1.0" encoding="UTF-8"?>
<svg width="20px" height="20px" viewBox="0 0 20 20" version="1.1" xmlns="http://www.w3.org/2000/svg" xmlns:xlink="http://www.w3.org/1999/xlink">
    <title>Group 5 Copy 3</title>
    <defs>
        <linearGradient x1="160.365117%" y1="-96.9809474%" x2="9.22487389%" y2="89.5850628%" id="linearGradient-1">
            <stop stop-color="#FF7000" offset="0%"></stop>
            <stop stop-color="#FFE14D" offset="100%"></stop>
        </linearGradient>
    </defs>
    <g id="Logo" stroke="none" stroke-width="1" fill="none" fill-rule="evenodd">
        <g id="Group-5-Copy-3">
            <rect id="Rectangle-Copy-120" fill="url(#linearGradient-1)" x="0" y="0" width="20" height="20" rx="3.14889789"></rect>
            <g id="Group-20-Copy-15" transform="translate(5.019531, 3.222656)" fill="#26292B" fill-rule="nonzero">
                <g id="Group-19">
                    <path d="M10.1364261,4.33409653 C10.1451147,5.08538257 9.96019129,5.82594763 9.59995598,6.48250501 C9.24185536,7.12684345 8.70198123,7.64369494 7.98033359,8.03305945 C7.25868596,8.42242397 6.37591573,8.61618575 5.33202293,8.61434478 L3.57011341,8.61434478 C2.16426212,8.61434478 0.0197431981,8.96573936 0.0197431981,9.87287584 L0.00340400632,9.26880855 C0.00298097596,8.98585644 0.136412734,8.71986584 0.362185426,8.55359287 L1.82862789,7.48491153 C1.96954833,7.38184867 2.01864841,7.1919528 1.94572543,7.03203365 L3.21609759,6.10556702 C4.14486249,7.22732805 5.77669042,7.41641263 6.93106664,6.53603114 C8.08544285,5.65564965 8.35903587,4.0134016 7.55392005,2.79733997 C6.74880423,1.58127835 5.14628175,1.21628711 3.9056669,1.96641219 C2.66505205,2.71653727 2.21980752,4.3196899 2.89203695,5.61609992 L1.6060064,6.55154127 C1.48017252,6.42991843 1.28670745,6.41656872 1.14578583,6.51978459 L0.117097549,7.2695184 C0.0944522122,7.28578265 0.0647502452,7.28787553 0.0401042677,7.27494353 C0.0154582901,7.26201154 0,7.23621586 0,7.20807612 L0,5.17771966 C0,2.31814405 2.28603293,0 5.10599744,0 L5.32929973,0 C6.36093814,0 7.23758117,0.184096699 7.9592288,0.552290097 C8.68087644,0.920483494 9.2237007,1.43089159 9.58770158,2.08351439 C9.9539718,2.73567695 10.13688,3.48587099 10.1364261,4.33409653 Z" id="Path-Copy-3"></path>
                    <path d="M3.57011348,9.31884733 L3.57011348,10.0934374 C3.57029399,11.0527946 3.19459648,11.9729216 2.52568914,12.6513544 C1.8567818,13.3297871 0.949472123,13.7109375 0.00339998949,13.7109375 L0.00339998949,10.2149412 C8.0333809e-09,9.3078047 2.16085812,9.31884733 3.57011348,9.31884733 Z" id="Path-Copy-4"></path>
                </g>
            </g>
        </g>
    </g>
</svg>