<?xml version="1.0" encoding="UTF-8"?>
<svg width="257px" height="279px" viewBox="0 0 257 279" version="1.1" xmlns="http://www.w3.org/2000/svg" xmlns:xlink="http://www.w3.org/1999/xlink">
    <title>Group 131@3x</title>
    <defs>
        <polygon id="path-1" points="0 0 51 0 51 50 0 50"></polygon>
        <polygon id="path-3" points="0 279 257 279 257 0 0 0"></polygon>
    </defs>
    <g id="Hi-Fid-Iteration-3-(UT-&amp;-Mentor-Feedback)" stroke="none" stroke-width="1" fill="none" fill-rule="evenodd">
        <g id="OnBoarding-Copy-14" transform="translate(-59.000000, -54.000000)">
            <g id="Group-131" transform="translate(59.000000, 54.000000)">
                <path d="M165,61.5 C165,84.9720745 145.972677,104 122.5,104 C99.0279255,104 80,84.9720745 80,61.5 C80,38.0279255 99.0279255,19 122.5,19 C145.972677,19 165,38.0279255 165,61.5" id="Fill-1" fill="#FFC93C"></path>
                <path d="M177.036782,3 C164.354988,3 154.074169,13.2556211 154.074169,25.906936 C154.074169,30.7333237 155.574401,35.2085038 158.129028,38.9016136 L149,53 L164.747589,45.2529177 C168.302169,47.5043871 172.514916,48.8132686 177.036782,48.8132686 C189.719181,48.8132686 200,38.5576475 200,25.906936 C200,13.2556211 189.719181,3 177.036782,3" id="Fill-3" fill="#D1A68A"></path>
                <g id="Group-7" transform="translate(147.000000, 0.000000)">
                    <mask id="mask-2" fill="white">
                        <use xlink:href="#path-1"></use>
                    </mask>
                    <g id="Clip-6"></g>
                    <path d="M28.0367822,-0.00030173012 C15.3549883,-0.00030173012 5.0741694,10.2555051 5.0741694,22.907049 C5.0741694,27.733524 6.5744007,32.2087852 9.12902843,35.9019618 L0,50 L15.7475892,42.2533809 C19.3021695,44.504891 23.5149157,45.8137963 28.0367822,45.8137963 C40.7191811,45.8137963 51,35.5579895 51,22.907049 C51,10.2555051 40.7191811,-0.00030173012 28.0367822,-0.00030173012" id="Fill-5" fill="#FFFFFF" mask="url(#mask-2)"></path>
                </g>
                <path d="M175.94992,14.0501463 C178.68336,16.7836748 178.68336,21.2157182 175.94992,23.9498537 C173.215874,26.6833821 168.783975,26.6833821 166.050535,23.9498537 C163.316488,21.2157182 163.316488,16.7836748 166.050535,14.0501463 C168.783975,11.3166179 173.215874,11.3166179 175.94992,14.0501463 Z" id="Stroke-8" stroke="#FF4747" stroke-width="4.556"></path>
                <line x1="176" y1="23" x2="187" y2="34" id="Stroke-10" stroke="#FF4747" stroke-width="4.556"></line>
                <mask id="mask-4" fill="white">
                    <use xlink:href="#path-3"></use>
                </mask>
                <g id="Clip-13"></g>
                <polygon id="Fill-12" fill="#D1A68A" mask="url(#mask-4)" points="166 154 239 154 239 59 166 59"></polygon>
                <polygon id="Fill-14" fill="#FFFFFF" mask="url(#mask-4)" points="170 149 243 149 243 54 170 54"></polygon>
                <polygon id="Fill-15" fill="#FF4747" mask="url(#mask-4)" points="170 74 243 74 243 55 170 55"></polygon>
                <polygon id="Stroke-16" stroke="#E0BFAA" mask="url(#mask-4)" points="178 86 214 86 214 83 178 83"></polygon>
                <polygon id="Stroke-17" stroke="#E0BFAA" mask="url(#mask-4)" points="179 94 233 94 233 91 179 91"></polygon>
                <polygon id="Stroke-18" stroke="#E0BFAA" mask="url(#mask-4)" points="179 103 233 103 233 100 179 100"></polygon>
                <polygon id="Stroke-19" stroke="#E0BFAA" mask="url(#mask-4)" points="179 112 233 112 233 109 179 109"></polygon>
                <polygon id="Stroke-20" stroke="#E0BFAA" mask="url(#mask-4)" points="179 121 233 121 233 118 179 118"></polygon>
                <polygon id="Stroke-21" stroke="#E0BFAA" mask="url(#mask-4)" points="178 130 201 130 201 127 178 127"></polygon>
                <polygon id="Stroke-22" stroke="#E0BFAA" mask="url(#mask-4)" points="178 139 201 139 201 136 178 136"></polygon>
                <polygon id="Fill-23" fill="#E0BFAA" mask="url(#mask-4)" points="205 139 233 139 233 127 205 127"></polygon>
                <path d="M177.721107,66.580104 L178.114265,66.580104 C178.319159,66.580104 178.493764,66.5482535 178.636893,66.4832785 C178.780021,66.4189404 178.895831,66.3214779 178.983133,66.1915278 C179.070436,66.0609407 179.13517,65.897229 179.175555,65.7010298 C179.217128,65.5048307 179.23732,65.276144 179.23732,65.0149697 C179.23732,64.6665251 179.200499,64.3735004 179.126856,64.1365325 C179.052619,63.8989277 178.93384,63.7199278 178.770519,63.5995329 C178.60601,63.4797749 178.387457,63.419896 178.114265,63.419896 L177.721107,63.419896 L177.721107,66.580104 Z M178.429623,62 C179.036584,62 179.528329,62.122943 179.905452,62.368829 C180.281981,62.6153519 180.558736,62.9599745 180.735123,63.4046077 C180.91151,63.8479669 181,64.3677673 181,64.9627349 C181,65.5666207 180.909134,66.0966132 180.72859,66.5533496 C180.54864,67.010723 180.269509,67.3661748 179.890605,67.6197049 C179.512888,67.873235 179.0253,68 178.429623,68 L176,68 L176,62 L178.429623,62 Z" id="Fill-24" fill="#000000" mask="url(#mask-4)"></path>
                <polygon id="Fill-25" fill="#000000" mask="url(#mask-4)" points="181 68 183 68 183 62 181 62"></polygon>
                <path d="M185.675293,66.1235355 C185.677757,66.1913669 185.697474,66.2591984 185.735059,66.3257965 C185.771411,66.3923947 185.825015,66.453443 185.895872,66.5089414 C185.967344,66.5638232 186.054837,66.608222 186.159581,66.6402878 C186.264941,66.6729702 186.386322,66.6890031 186.52557,66.6890031 C186.706716,66.6890031 186.850893,66.668037 186.95687,66.6254882 C187.063463,66.5829394 187.139864,66.5268243 187.186691,66.4577595 C187.233518,66.3880781 187.256315,66.3134635 187.256315,66.2339157 C187.256315,66.0840699 187.186691,65.9749229 187.046827,65.9083248 C186.90573,65.8417266 186.705484,65.7862282 186.444855,65.7405961 L185.743068,65.6172662 C185.425755,65.5605344 185.142329,65.4655704 184.892791,65.3317575 C184.643253,65.1985612 184.447936,65.0141829 184.305607,64.7786228 C184.16451,64.5430627 184.093654,64.2470709 184.093654,63.8894142 C184.093654,63.4898253 184.194085,63.1482014 184.395564,62.865776 C184.596426,62.5839671 184.878004,62.3687564 185.239063,62.2213772 C185.600739,62.0739979 186.022181,62 186.504621,62 C187.05114,62 187.499692,62.0900308 187.849661,62.2700925 C188.200246,62.4501542 188.459643,62.6807811 188.62785,62.9619733 C188.796057,63.2425488 188.881084,63.5348407 188.881084,63.8382323 L187.265558,63.8382323 C187.262477,63.7562179 187.234134,63.6729702 187.179914,63.5897225 C187.126309,63.5058582 187.044362,63.4349435 186.933457,63.3763618 C186.823167,63.3183967 186.681454,63.2894142 186.508934,63.2894142 C186.281577,63.2894142 186.117683,63.3344296 186.015404,63.4238438 C185.913124,63.5126413 185.8626,63.6199383 185.8626,63.7451182 C185.8626,63.8696814 185.92976,63.9664954 186.064079,64.0361768 C186.199014,64.1058582 186.383241,64.15889 186.618608,64.195889 L187.362908,64.3105858 C187.632779,64.350668 187.892175,64.4295992 188.141097,64.5492292 C188.390635,64.6682425 188.59581,64.8470709 188.757856,65.0850976 C188.919285,65.323741 189,65.6425488 189,66.0427544 C189,66.4195272 188.908811,66.7562179 188.725816,67.0509764 C188.542822,67.3463515 188.265558,67.5782117 187.89464,67.746557 C187.523105,67.915519 187.054221,68 186.486753,68 C186.011091,68 185.613062,67.9457348 185.294516,67.8359712 C184.975354,67.7268243 184.721503,67.5806783 184.531731,67.3975334 C184.341343,67.2150051 184.205176,67.0127441 184.123229,66.7913669 C184.041282,66.5706064 184,66.3473792 184,66.1235355 L185.675293,66.1235355 Z" id="Fill-26" fill="#000000" mask="url(#mask-4)"></path>
                <polygon id="Fill-27" fill="#000000" mask="url(#mask-4)" points="190 68 192 68 192 62 190 62"></polygon>
                <polygon id="Fill-28" fill="#000000" mask="url(#mask-4)" points="193 68 193 62 194.333292 62 196.302246 64.9009449 196.369739 64.9009449 196.369739 62 198 62 198 68 196.678979 68 194.697754 65.0461832 194.629648 65.0461832 194.629648 68"></polygon>
                <polygon id="Fill-29" fill="#000000" mask="url(#mask-4)" points="199 68 199 62 203 62 203 63.4415543 200.731959 63.4415543 200.731959 64.5403971 202.781862 64.5403971 202.781862 65.9297165 200.731959 65.9297165 200.731959 68"></polygon>
                <path d="M207.231029,63.9954779 C207.164137,63.8055498 207.06914,63.6612539 206.946037,63.5638232 C206.822934,63.465776 206.67566,63.4170606 206.501967,63.4170606 C206.328836,63.4170606 206.180438,63.465776 206.055649,63.5638232 C205.931422,63.6612539 205.836425,63.8055498 205.768409,63.9954779 C205.701518,64.1860226 205.668353,64.4197328 205.668353,64.6978417 L205.668353,65.3021583 C205.668353,65.5802672 205.701518,65.814594 205.768409,66.006372 C205.836425,66.1975334 205.931422,66.3418294 206.055649,66.4380267 C206.180438,66.5348407 206.328836,66.5829394 206.501967,66.5829394 C206.67566,66.5829394 206.822934,66.5348407 206.946037,66.4380267 C207.06914,66.3418294 207.164137,66.1975334 207.231029,66.006372 C207.298482,65.814594 207.332209,65.5802672 207.332209,65.3021583 L207.332209,64.6978417 C207.332209,64.4197328 207.298482,64.1860226 207.231029,63.9954779 M208.713322,66.7167523 C208.521641,67.123741 208.240585,67.4394656 207.86959,67.663926 C207.498595,67.8877698 207.042721,68 206.501967,68 C205.964025,68 205.509275,67.8877698 205.136594,67.663926 C204.763912,67.4394656 204.481731,67.123741 204.289488,66.7167523 C204.096684,66.3097636 204,65.8355601 204,65.2935252 L204,64.7231244 C204,64.173073 204.096684,63.6933196 204.289488,63.2850976 C204.481731,62.8768756 204.763912,62.5599178 205.136594,62.336074 C205.509275,62.1122302 205.964025,62 206.501967,62 C207.042721,62 207.498595,62.1134635 207.86959,62.3403905 C208.240585,62.5673176 208.521641,62.8842754 208.713322,63.2912641 C208.904441,63.6988695 209,64.1755396 209,64.7231244 L209,65.2935252 C209,65.8355601 208.904441,66.3097636 208.713322,66.7167523" id="Fill-30" fill="#000000" mask="url(#mask-4)"></path>
                <path d="M212.349449,64.7694268 C212.5415,64.7694268 212.709924,64.711465 212.852902,64.5955414 C212.996486,64.4796178 213.068581,64.3006369 213.068581,64.0573248 C213.068581,63.811465 212.994063,63.6273885 212.846844,63.5057325 C212.699019,63.3840764 212.533624,63.3229299 212.349449,63.3229299 L211.718163,63.3229299 L211.718163,64.7694268 L212.349449,64.7694268 Z M213.867079,62.2573248 C214.201502,62.4286624 214.453532,62.6700637 214.623773,62.9802548 C214.793408,63.2910828 214.878832,63.6528662 214.878832,64.066242 C214.878832,64.3974522 214.817642,64.6796178 214.696474,64.9146497 C214.575306,65.1490446 214.435963,65.3363057 214.27905,65.4770701 C214.121532,65.6178344 213.988247,65.7140127 213.879195,65.766879 L215,68 L213.072216,68 L212.157397,66 L211.718163,66 L211.718163,68 L210,68 L210,62 L212.616624,62 C213.115837,62 213.532049,62.0859873 213.867079,62.2573248 L213.867079,62.2573248 Z" id="Fill-31" fill="#000000" mask="url(#mask-4)"></path>
                <polygon id="Fill-32" fill="#000000" mask="url(#mask-4)" points="215 68 215 62 216.7879 62 217.977275 64.6767173 218.03453 64.6767173 219.228037 62 221 62 221 68 219.464142 68 219.464142 64.6550589 219.386818 64.6550589 218.44181 66.8616626 217.545204 66.8616626 216.592523 64.6550589 216.511658 64.6550589 216.511658 68"></polygon>
                <path d="M224.898696,63.5254777 L224.411413,65.5694268 L225.460355,65.5694268 L224.991665,63.5254777 L224.898696,63.5254777 Z M222,68 L223.832443,62 L226.186151,62 L228,68 L226.017525,68 L225.757213,66.866242 L224.10686,66.866242 L223.836931,68 L222,68 Z" id="Fill-33" fill="#000000" mask="url(#mask-4)"></path>
                <path d="M229.675293,66.1235355 C229.678373,66.1913669 229.69809,66.2591984 229.735059,66.3257965 C229.771411,66.3923947 229.825632,66.453443 229.896488,66.5089414 C229.967344,66.5638232 230.054837,66.608222 230.160197,66.6402878 C230.264941,66.6729702 230.386938,66.6890031 230.52557,66.6890031 C230.707332,66.6890031 230.850893,66.668037 230.957486,66.6254882 C231.063463,66.5829394 231.140481,66.5268243 231.186691,66.4577595 C231.233518,66.3880781 231.256932,66.3134635 231.256932,66.2339157 C231.256932,66.0840699 231.186691,65.9749229 231.046827,65.9083248 C230.906346,65.8417266 230.7061,65.7862282 230.444855,65.7405961 L229.743068,65.6172662 C229.426371,65.5605344 229.142945,65.4655704 228.892791,65.3317575 C228.643253,65.1985612 228.447936,65.0141829 228.306223,64.7786228 C228.16451,64.5430627 228.09427,64.2470709 228.09427,63.8894142 C228.09427,63.4898253 228.194701,63.1482014 228.395564,62.865776 C228.597043,62.5839671 228.878004,62.3687564 229.23968,62.2213772 C229.601356,62.0739979 230.022181,62 230.504621,62 C231.05114,62 231.500308,62.0900308 231.850277,62.2700925 C232.200246,62.4501542 232.459643,62.6807811 232.628466,62.9619733 C232.796673,63.2425488 232.881084,63.5348407 232.881084,63.8382323 L231.265558,63.8382323 C231.262477,63.7562179 231.234134,63.6729702 231.18053,63.5897225 C231.126309,63.5058582 231.044978,63.4349435 230.934073,63.3763618 C230.823167,63.3183967 230.68207,63.2894142 230.508934,63.2894142 C230.281577,63.2894142 230.117683,63.3344296 230.01602,63.4238438 C229.91374,63.5126413 229.8626,63.6199383 229.8626,63.7451182 C229.8626,63.8696814 229.92976,63.9664954 230.064695,64.0361768 C230.19963,64.1058582 230.383857,64.15889 230.619224,64.195889 L231.363524,64.3105858 C231.632779,64.350668 231.892175,64.4295992 232.141713,64.5492292 C232.390635,64.6682425 232.596426,64.8470709 232.757856,65.0850976 C232.919901,65.323741 233,65.6425488 233,66.0427544 C233,66.4195272 232.908811,66.7562179 232.725816,67.0509764 C232.542822,67.3463515 232.266174,67.5782117 231.895256,67.746557 C231.523722,67.915519 231.054221,68 230.487369,68 C230.011091,68 229.613678,67.9457348 229.295132,67.8359712 C228.97597,67.7268243 228.721503,67.5806783 228.531731,67.3975334 C228.341959,67.2150051 228.205792,67.0127441 228.123229,66.7913669 C228.041282,66.5706064 228,66.3473792 228,66.1235355 L229.675293,66.1235355 Z" id="Fill-34" fill="#000000" mask="url(#mask-4)"></path>
                <polygon id="Fill-35" fill="#000000" mask="url(#mask-4)" points="234 68 236 68 236 62 234 62"></polygon>
                <polygon id="Fill-36" fill="#D1A68A" mask="url(#mask-4)" points="209 189 254 189 254 144 209 144"></polygon>
                <polygon id="Fill-37" fill="#FF4747" mask="url(#mask-4)" points="212 187 257 187 257 142 212 142"></polygon>
                <path d="M242.756496,162.474964 L227.729885,154.316947 C226.072506,153.416715 224,154.541269 224,156.341732 L224,172.657766 C224,174.458229 226.072506,175.583371 227.729885,174.68314 L242.756496,166.525123 C244.414501,165.624891 244.414501,163.374607 242.756496,162.474964" id="Fill-38" fill="#FFD9C2" mask="url(#mask-4)"></path>
                <path d="M91.861523,49 L36.138477,49 C32.1957629,49 29,52.1140015 29,55.955844 L29,60.7541593 C29,64.595411 32.1957629,67.7094125 36.138477,67.7094125 L80.6669554,67.7094125 L94.7868799,80 L89.7097942,67.7094125 L91.861523,67.7094125 C95.8042371,67.7094125 99,64.595411 99,60.7541593 L99,55.955844 C99,52.1140015 95.8042371,49 91.861523,49" id="Fill-39" fill="#D1A68A" mask="url(#mask-4)"></path>
                <path d="M89.861523,49 L34.138477,49 C30.1957629,49 27,52.1140015 27,55.955844 L27,60.7535685 C27,64.5948202 30.1957629,67.7094125 34.138477,67.7094125 L78.6669554,67.7094125 L92.7868799,80 L87.7097942,67.7094125 L89.861523,67.7094125 C93.8042371,67.7094125 97,64.5948202 97,60.7535685 L97,55.955844 C97,52.1140015 93.8042371,49 89.861523,49" id="Fill-40" fill="#FFFFFF" mask="url(#mask-4)"></path>
                <path d="M44,57 C44,58.1047818 43.1047818,59 42,59 C40.8952182,59 40,58.1047818 40,57 C40,55.8952182 40.8952182,55 42,55 C43.1047818,55 44,55.8952182 44,57" id="Fill-41" fill="#07689F" mask="url(#mask-4)"></path>
                <path d="M54,57 C54,58.1047818 53.1048988,59 52.0002613,59 C50.8956238,59 50,58.1047818 50,57 C50,55.8952182 50.8956238,55 52.0002613,55 C53.1048988,55 54,55.8952182 54,57" id="Fill-42" fill="#07689F" mask="url(#mask-4)"></path>
                <path d="M63,57 C63,58.1047818 62.1043762,59 60.9997387,59 C59.8956238,59 59,58.1047818 59,57 C59,55.8952182 59.8956238,55 60.9997387,55 C62.1043762,55 63,55.8952182 63,57" id="Fill-43" fill="#07689F" mask="url(#mask-4)"></path>
                <path d="M74,57 C74,58.1047818 73.1047818,59 72,59 C70.8952182,59 70,58.1047818 70,57 C70,55.8952182 70.8952182,55 72,55 C73.1047818,55 74,55.8952182 74,57" id="Fill-44" fill="#07689F" mask="url(#mask-4)"></path>
                <path d="M84,57 C84,58.1047818 83.1043762,59 82.0002613,59 C80.8956238,59 80,58.1047818 80,57 C80,55.8952182 80.8956238,55 82.0002613,55 C83.1043762,55 84,55.8952182 84,57" id="Fill-45" fill="#07689F" mask="url(#mask-4)"></path>
                <polygon id="Fill-46" fill="#D1A68A" mask="url(#mask-4)" points="3 164 77 164 77 85 3 85"></polygon>
                <polygon id="Fill-47" fill="#FFFFFF" mask="url(#mask-4)" points="0 160 74 160 74 81 0 81"></polygon>
                <polygon id="Fill-48" fill="#FF4747" mask="url(#mask-4)" points="0 102 74 102 74 82 0 82"></polygon>
                <polygon id="Stroke-49" stroke="#E0BFAA" mask="url(#mask-4)" points="9 117 63 117 63 114 9 114"></polygon>
                <polygon id="Stroke-50" stroke="#E0BFAA" mask="url(#mask-4)" points="9 127 63 127 63 124 9 124"></polygon>
                <polygon id="Stroke-51" stroke="#E0BFAA" mask="url(#mask-4)" points="9 137 63 137 63 134 9 134"></polygon>
                <polygon id="Stroke-52" stroke="#E0BFAA" mask="url(#mask-4)" points="9 147 63 147 63 144 9 144"></polygon>
                <polygon id="Fill-53" fill="#000000" mask="url(#mask-4)" points="5 96 5 90 6.78789966 90 7.97727496 92.6767173 8.03453025 92.6767173 9.22803738 90 11 90 11 96 9.46414166 96 9.46414166 92.6550589 9.38681751 92.6550589 8.44181013 94.8616626 7.54520413 94.8616626 6.59252336 92.6550589 6.51106739 92.6550589 6.51106739 96"></polygon>
                <polygon id="Fill-54" fill="#000000" mask="url(#mask-4)" points="12 96 14 96 14 90 12 90"></polygon>
                <path d="M15.6752927,94.1235355 C15.6777572,94.1913669 15.69809,94.2591984 15.7350585,94.3257965 C15.771411,94.3923947 15.8256315,94.453443 15.896488,94.5089414 C15.9673444,94.5638232 16.0548367,94.608222 16.1601972,94.6402878 C16.2649415,94.6729702 16.3869378,94.6890031 16.5255699,94.6890031 C16.706716,94.6890031 16.8508934,94.668037 16.9574861,94.6254882 C17.0634627,94.5829394 17.1398644,94.5268243 17.1866913,94.4577595 C17.2335182,94.3880781 17.2569316,94.3134635 17.2569316,94.2339157 C17.2569316,94.0840699 17.1866913,93.9749229 17.0468269,93.9083248 C16.9063463,93.8417266 16.7054837,93.7862282 16.4448552,93.7405961 L15.7430684,93.6172662 C15.4257548,93.5605344 15.142329,93.4655704 14.8927911,93.3317575 C14.6432532,93.1985612 14.4479359,93.0141829 14.306223,92.7786228 C14.1645102,92.5430627 14.0936537,92.2470709 14.0936537,91.8894142 C14.0936537,91.4898253 14.194085,91.1482014 14.3955638,90.865776 C14.5970425,90.5839671 14.8780037,90.3687564 15.2390635,90.2213772 C15.6007394,90.0739979 16.0221811,90 16.5046211,90 C17.0511399,90 17.4996919,90.0900308 17.8502773,90.2700925 C18.2002465,90.4501542 18.4596426,90.6807811 18.6278497,90.9619733 C18.7966728,91.2425488 18.8810844,91.5348407 18.8810844,91.8382323 L17.2655576,91.8382323 C17.2624769,91.7562179 17.2341343,91.6729702 17.1805299,91.5897225 C17.1263093,91.5058582 17.0443623,91.4349435 16.9334566,91.3763618 C16.823167,91.3183967 16.6814541,91.2894142 16.5089341,91.2894142 C16.2815773,91.2894142 16.1176833,91.3344296 16.0154036,91.4238438 C15.9131238,91.5126413 15.8626001,91.6199383 15.8626001,91.7451182 C15.8626001,91.8696814 15.9297597,91.9664954 16.0640789,92.0361768 C16.1990142,92.1058582 16.3838571,92.15889 16.6192237,92.195889 L17.3635243,92.3105858 C17.6327788,92.350668 17.892175,92.4295992 18.1410967,92.5492292 C18.3906346,92.6682425 18.5964264,92.8470709 18.7578558,93.0850976 C18.9192853,93.323741 19,93.6425488 19,94.0427544 C19,94.4195272 18.9088108,94.7562179 18.7258164,95.0509764 C18.5428219,95.3463515 18.2661738,95.5782117 17.8946396,95.746557 C17.5237215,95.915519 17.0542206,96 16.4873691,96 C16.0110906,96 15.6136784,95.9457348 15.2945163,95.8359712 C14.9759704,95.7268243 14.7215034,95.5806783 14.5317314,95.3975334 C14.3413432,95.2150051 14.2057917,95.0127441 14.1232286,94.7913669 C14.0412816,94.5706064 14,94.3473792 14,94.1235355 L15.6752927,94.1235355 Z" id="Fill-55" fill="#000000" mask="url(#mask-4)"></path>
                <polygon id="Fill-56" fill="#000000" mask="url(#mask-4)" points="20 96 22 96 22 90 20 90"></polygon>
                <polygon id="Fill-57" fill="#000000" mask="url(#mask-4)" points="24 96 24 90 25.3332924 90 27.3022457 92.9009449 27.3703522 92.9009449 27.3703522 90 29 90 29 96 27.6795926 96 25.6977543 93.0461832 25.6302614 93.0461832 25.6302614 96"></polygon>
                <polygon id="Fill-58" fill="#000000" mask="url(#mask-4)" points="30 96 30 90 34 90 34 91.4415543 31.7319588 91.4415543 31.7319588 92.5403971 33.7818616 92.5403971 33.7818616 93.9297165 31.7319588 93.9297165 31.7319588 96"></polygon>
                <path d="M37.2310287,91.9954779 C37.163575,91.8055498 37.0685779,91.6612539 36.9460371,91.5638232 C36.8229342,91.465776 36.6750984,91.4170606 36.5019674,91.4170606 C36.3288364,91.4170606 36.1798763,91.465776 36.0556492,91.5638232 C35.9314221,91.6612539 35.8358628,91.8055498 35.7684092,91.9954779 C35.7015177,92.1860226 35.6677909,92.4197328 35.6677909,92.6978417 L35.6677909,93.3021583 C35.6677909,93.5802672 35.7015177,93.814594 35.7684092,94.006372 C35.8358628,94.1975334 35.9314221,94.3418294 36.0556492,94.4380267 C36.1798763,94.5348407 36.3288364,94.5829394 36.5019674,94.5829394 C36.6750984,94.5829394 36.8229342,94.5348407 36.9460371,94.4380267 C37.0685779,94.3418294 37.163575,94.1975334 37.2310287,94.006372 C37.2984823,93.814594 37.3322091,93.5802672 37.3322091,93.3021583 L37.3322091,92.6978417 C37.3322091,92.4197328 37.2984823,92.1860226 37.2310287,91.9954779 M38.71276,94.7167523 C38.5216414,95.123741 38.2400225,95.4394656 37.8690275,95.663926 C37.4980326,95.8877698 37.0427206,96 36.5019674,96 C35.9640247,96 35.5092749,95.8877698 35.1365936,95.663926 C34.7639123,95.4394656 34.4817313,95.123741 34.2889264,94.7167523 C34.0961214,94.3097636 34,93.8355601 34,93.2935252 L34,92.7231244 C34,92.173073 34.0961214,91.6933196 34.2889264,91.2850976 C34.4817313,90.8768756 34.7639123,90.5599178 35.1365936,90.336074 C35.5092749,90.1122302 35.9640247,90 36.5019674,90 C37.0427206,90 37.4980326,90.1134635 37.8690275,90.3403905 C38.2400225,90.5673176 38.5216414,90.8842754 38.71276,91.2912641 C38.9044407,91.6988695 39,92.1755396 39,92.7231244 L39,93.2935252 C39,93.8355601 38.9044407,94.3097636 38.71276,94.7167523" id="Fill-59" fill="#000000" mask="url(#mask-4)"></path>
                <path d="M43.3494487,92.7694268 C43.5415001,92.7694268 43.7099237,92.711465 43.8535078,92.5955414 C43.9964861,92.4796178 44.0685811,92.3006369 44.0685811,92.0573248 C44.0685811,91.811465 43.9946686,91.6273885 43.8468436,91.5057325 C43.6990185,91.3840764 43.5336241,91.3229299 43.3494487,91.3229299 L42.7181631,91.3229299 L42.7181631,92.7694268 L43.3494487,92.7694268 Z M44.8670786,90.2573248 C45.2015025,90.4286624 45.453532,90.6700637 45.6237732,90.9802548 C45.7940143,91.2910828 45.8788319,91.6528662 45.8788319,92.066242 C45.8788319,92.3974522 45.8182479,92.6796178 45.6970798,92.9146497 C45.5753059,93.1490446 45.4359627,93.3363057 45.27905,93.4770701 C45.1215316,93.6178344 44.9882467,93.7140127 44.8791954,93.766879 L46,96 L44.072822,96 L43.1573973,94 L42.7181631,94 L42.7181631,96 L41,96 L41,90 L43.6166243,90 C44.1158367,90 44.5326548,90.0859873 44.8670786,90.2573248 L44.8670786,90.2573248 Z" id="Fill-60" fill="#000000" mask="url(#mask-4)"></path>
                <polygon id="Fill-61" fill="#000000" mask="url(#mask-4)" points="47 96 47 90 48.7878997 90 49.977275 92.6767173 50.0345303 92.6767173 51.2280374 90 53 90 53 96 51.4641417 96 51.4641417 92.6550589 51.3868175 92.6550589 50.4418101 94.8616626 49.5452041 94.8616626 48.5925234 92.6550589 48.5110674 92.6550589 48.5110674 96"></polygon>
                <path d="M55.8983649,91.5254777 L55.4116704,93.5694268 L56.4600834,93.5694268 L55.9913434,91.5254777 L55.8983649,91.5254777 Z M53,96 L54.8319974,90 L57.185957,90 L59,96 L57.0179545,96 L56.7569734,94.866242 L55.1064444,94.866242 L54.8364861,96 L53,96 Z" id="Fill-62" fill="#000000" mask="url(#mask-4)"></path>
                <path d="M60.6752927,94.1235355 C60.6777572,94.1913669 60.69809,94.2591984 60.7350585,94.3257965 C60.771411,94.3923947 60.8256315,94.453443 60.896488,94.5089414 C60.9673444,94.5638232 61.0548367,94.608222 61.1601972,94.6402878 C61.2649415,94.6729702 61.3869378,94.6890031 61.5255699,94.6890031 C61.706716,94.6890031 61.8508934,94.668037 61.9574861,94.6254882 C62.0634627,94.5829394 62.1398644,94.5268243 62.1866913,94.4577595 C62.2335182,94.3880781 62.2569316,94.3134635 62.2569316,94.2339157 C62.2569316,94.0840699 62.1866913,93.9749229 62.0468269,93.9083248 C61.9063463,93.8417266 61.7054837,93.7862282 61.4448552,93.7405961 L60.7430684,93.6172662 C60.4257548,93.5605344 60.142329,93.4655704 59.8927911,93.3317575 C59.6432532,93.1985612 59.4479359,93.0141829 59.306223,92.7786228 C59.1645102,92.5430627 59.0936537,92.2470709 59.0936537,91.8894142 C59.0936537,91.4898253 59.194085,91.1482014 59.3955638,90.865776 C59.5970425,90.5839671 59.8780037,90.3687564 60.2390635,90.2213772 C60.6007394,90.0739979 61.0221811,90 61.5046211,90 C62.0511399,90 62.4996919,90.0900308 62.8502773,90.2700925 C63.2002465,90.4501542 63.4596426,90.6807811 63.6278497,90.9619733 C63.7966728,91.2425488 63.8810844,91.5348407 63.8810844,91.8382323 L62.2655576,91.8382323 C62.2624769,91.7562179 62.2341343,91.6729702 62.1805299,91.5897225 C62.1263093,91.5058582 62.0443623,91.4349435 61.9334566,91.3763618 C61.823167,91.3183967 61.6814541,91.2894142 61.5089341,91.2894142 C61.2815773,91.2894142 61.1176833,91.3344296 61.0154036,91.4238438 C60.9131238,91.5126413 60.8626001,91.6199383 60.8626001,91.7451182 C60.8626001,91.8696814 60.9297597,91.9664954 61.0640789,92.0361768 C61.1990142,92.1058582 61.3838571,92.15889 61.6192237,92.195889 L62.3635243,92.3105858 C62.6327788,92.350668 62.892175,92.4295992 63.1410967,92.5492292 C63.3906346,92.6682425 63.5964264,92.8470709 63.7578558,93.0850976 C63.9192853,93.323741 64,93.6425488 64,94.0427544 C64,94.4195272 63.9088108,94.7562179 63.7258164,95.0509764 C63.5428219,95.3463515 63.2661738,95.5782117 62.8946396,95.746557 C62.5237215,95.915519 62.0542206,96 61.4873691,96 C61.0110906,96 60.6136784,95.9457348 60.2945163,95.8359712 C59.9759704,95.7268243 59.7215034,95.5806783 59.5317314,95.3975334 C59.3413432,95.2150051 59.2057917,95.0127441 59.1232286,94.7913669 C59.0412816,94.5706064 59,94.3473792 59,94.1235355 L60.6752927,94.1235355 Z" id="Fill-63" fill="#000000" mask="url(#mask-4)"></path>
                <polygon id="Fill-64" fill="#000000" mask="url(#mask-4)" points="64 96 66 96 66 90 64 90"></polygon>
                <polygon id="Fill-65" fill="#D1A68A" mask="url(#mask-4)" points="18 227 66 227 66 179 18 179"></polygon>
                <polygon id="Fill-66" fill="#FFFFFF" mask="url(#mask-4)" points="15 225 63 225 63 177 15 177"></polygon>
                <polygon id="Stroke-67" stroke="#E0BFAA" mask="url(#mask-4)" points="21 188 57 188 57 186 21 186"></polygon>
                <polygon id="Stroke-68" stroke="#E0BFAA" mask="url(#mask-4)" points="21 194 57 194 57 192 21 192"></polygon>
                <polygon id="Stroke-69" stroke="#E0BFAA" mask="url(#mask-4)" points="21 201 57 201 57 199 21 199"></polygon>
                <polygon id="Stroke-70" stroke="#E0BFAA" mask="url(#mask-4)" points="21 208 57 208 57 206 21 206"></polygon>
                <polygon id="Stroke-71" stroke="#E0BFAA" mask="url(#mask-4)" points="21 216 57 216 57 214 21 214"></polygon>
                <polygon id="Fill-72" fill="#FF4747" mask="url(#mask-4)" points="56 187.158105 52.8424868 184 40 196.841895 27.158105 184 24 187.158105 36.8424868 200 24 212.841895 27.158105 216 40 203.158105 52.8424868 216 56 212.841895 43.158105 200"></polygon>
                <polygon id="Fill-73" fill="#D1A68A" mask="url(#mask-4)" points="165 224 221 224 221 185 165 185"></polygon>
                <polygon id="Fill-74" fill="#FFC93C" mask="url(#mask-4)" points="167 220 223 220 223 181 167 181"></polygon>
                <polygon id="Fill-75" fill="#BA7F09" mask="url(#mask-4)" points="223 221 167 221 195.000599 184"></polygon>
                <polygon id="Fill-76" fill="#FFC93C" mask="url(#mask-4)" points="223 221 167 221 195.000599 193"></polygon>
                <polygon id="Fill-77" fill="#BA7F09" mask="url(#mask-4)" points="223 181 167 181 195.000599 212"></polygon>
                <polygon id="Fill-78" fill="#FFC93C" mask="url(#mask-4)" points="223 181 167 181 195.000599 206"></polygon>
                <path d="M123,42 C123,47.5229666 118.522967,52 113,52 C107.477033,52 103,47.5229666 103,42 C103,36.4776119 107.477033,32 113,32 C118.522967,32 123,36.4776119 123,42" id="Fill-79" fill="#472D1C" mask="url(#mask-4)"></path>
                <path d="M112,51.065767 C112,51.7287588 112.04473,52.3601216 112.118887,52.9628968 C112.353719,52.9799278 112.587961,53 112.826324,53 C118.445211,53 123,48.292758 123,42.4858012 C123,40.4724957 122.442643,38.5984794 121.493312,37 C115.971536,39.002357 112,44.5416841 112,51.065767" id="Fill-80" fill="#291A10" mask="url(#mask-4)"></path>
                <path d="M97.5620229,279 L108.1342,218.997865 L108.24117,219.002654 C110.442139,219.113999 112.270801,220.742263 112.638326,222.918271 L121.610124,279 L166,279 L143.568412,194.829516 L143.568412,173 L79.7271893,175.923692 C67.3914891,198.102207 58.7884109,257.528463 56,279 L97.5620229,279 Z" id="Fill-81" fill="#457E99" mask="url(#mask-4)"></path>
                <path d="M144,179.840947 L144,173 L79.575262,175.82547 C77.67804,179.091769 75.9382163,182.738153 74.3449358,186.619414 C72.92413,190.080672 76.1112941,193.666312 79.904532,192.893994 L144,179.840947 Z" id="Fill-82" fill="#1A5470" mask="url(#mask-4)"></path>
                <line x1="117" y1="174" x2="109" y2="219" id="Stroke-83" stroke="#10115C" mask="url(#mask-4)"></line>
                <path d="M124,177 L120.083402,197.194916 C119.45281,200.444544 117.604773,203.35529 114.891647,205.369203 L110,209" id="Stroke-84" stroke="#10115C" mask="url(#mask-4)"></path>
                <line x1="102" y1="213" x2="126" y2="212" id="Stroke-85" stroke="#10115C" mask="url(#mask-4)"></line>
                <line x1="104" y1="215" x2="122" y2="216" id="Stroke-86" stroke="#10115C" mask="url(#mask-4)"></line>
                <path d="M136.211814,174 C136.211814,174 133.980803,190.31108 144,194" id="Stroke-87" stroke="#10115C" mask="url(#mask-4)"></path>
                <path d="M97,175 C97,175 94.7578211,199.114461 71,200" id="Stroke-88" stroke="#10115C" mask="url(#mask-4)"></path>
                <path d="M146,89 C146,89 153.584688,89.1425788 158.792607,94.5036614 C164.000527,99.864145 174.223238,115.090123 174.223238,115.090123 L180.202481,113.237197 C180.202481,113.237197 187.918093,131.953361 192.354096,145.848803 C196.790098,159.744245 192.014642,173.665447 180.973806,171.837682 C165.929429,169.347346 159.183601,152.34093 152.430071,134.09983 L146,89 Z" id="Fill-89" fill="#FF7878" mask="url(#mask-4)"></path>
                <path d="M167.397715,118.337645 C169.012546,111.475806 167.340129,104.260731 162.861763,98.7670824 C161.479095,97.0707164 160.177653,95.571852 159.089583,94.4817146 C153.760763,89.1420102 146,89 146,89 L152.579949,133.919987 C154.856714,139.905898 157.134086,145.753975 159.712723,151 L167.397715,118.337645 Z" id="Fill-90" fill="#FF4747" mask="url(#mask-4)"></path>
                <path d="M87.4858297,107.551144 L92.4759822,92.6271973 C92.4759822,92.6271973 96.7827085,90.0561353 102.897479,88.5810041 L130.234522,90.1073303 L140.693285,88 L145.003017,88.4440871 C147.683225,88.7203022 149.719679,90.9574059 149.719679,93.6260956 L149.719679,99.556385 L157.080484,122.507831 C158.546514,127.07788 158.251385,132.022368 156.2534,136.390614 C154.305305,140.649921 151.425539,145.513449 147.811255,147.526723 L143.603706,166.85999 C143.603706,166.85999 147.713279,167.829124 147.126627,170.929995 C146.539373,174.030866 142.579469,175 135.753022,175 L80,175 L87.4858297,107.551144 Z" id="Fill-91" fill="#07689F" mask="url(#mask-4)"></path>
                <polygon id="Fill-92" fill="#0B4B68" mask="url(#mask-4)" points="82.2560998 155.894793 82 158 145.495525 156.111648 146 154"></polygon>
                <path d="M83.2560186,143.985615 L83,146 L151.491213,144.050347 C152.024634,143.395325 152.527762,142.705369 153,142 L83.2560186,143.985615 Z" id="Fill-93" fill="#0B4B68" mask="url(#mask-4)"></path>
                <polygon id="Fill-94" fill="#0B4B68" mask="url(#mask-4)" points="80.2611602 166.875406 80 169 143.486769 167.132178 144 165"></polygon>
                <polygon id="Fill-95" fill="#0B4B68" mask="url(#mask-4)" points="87.2582361 107.891085 87 110 152 108.079871 151.263638 106"></polygon>
                <path d="M85.257716,131.526183 L85,134 L157.815832,131.471293 C157.923463,130.651104 157.986247,129.826498 158,129 L85.257716,131.526183 Z" id="Fill-96" fill="#0B4B68" mask="url(#mask-4)"></path>
                <polygon id="Fill-97" fill="#0B4B68" mask="url(#mask-4)" points="90.7841727 95.7889729 90 98 149 96.1869577 149 94"></polygon>
                <polygon id="Fill-98" fill="#0B4B68" mask="url(#mask-4)" points="86.2583402 119.965759 86 122 156 120.006226 155.263341 118"></polygon>
                <polygon id="Fill-99" fill="#10115C" mask="url(#mask-4)" points="99 130 95.8730567 153.165489 87 156 90.5982704 133.834511"></polygon>
                <polygon id="Fill-100" fill="#10115C" mask="url(#mask-4)" points="169.144393 109 154 109 161.856198 79 177 79"></polygon>
                <line x1="163" y1="80" x2="155" y2="108" id="Stroke-101" stroke="#5153B5" stroke-width="0.776" mask="url(#mask-4)"></line>
                <path d="M166.07992,82 L164.511665,82 C164.132777,82 163.916745,81.552267 164.030221,81 C164.142748,80.447733 164.541578,80 164.920466,80 L166.488245,80 C166.867133,80 167.082691,80.447733 166.970164,81 C166.857163,81.552267 166.458808,82 166.07992,82" id="Fill-102" fill="#5153B5" mask="url(#mask-4)"></path>
                <polygon id="Fill-103" fill="#10115C" mask="url(#mask-4)" points="128 132 109.040854 175 92 175"></polygon>
                <path d="M180,112.883736 L177.296296,105.021255 C177.296296,105.021255 177.586297,94.5958687 176.330815,90.4159212 C175.371857,87.2206499 170.351117,84.9664639 168.038231,84.0815093 C167.398333,83.8360867 166.684897,84.163914 166.445899,84.8094173 C166.246635,85.3456449 166.43641,85.9493487 166.906104,86.272399 L172.372816,90.0271861 L173.531631,93.6237323 L166.218762,90.6344727 C165.023178,90.146016 163.682297,90.8769097 163.434997,92.1517937 L163.057818,94.0972607 C162.798064,95.4342468 163.430252,96.7867583 164.618126,97.4388302 L170.466168,100.647238 L164.363116,100.013678 C163.811582,99.95695 163.317573,100.358822 163.257675,100.914158 C163.199557,101.456954 163.577921,101.948994 164.114629,102.027218 L168.462854,102.664362 C168.462854,102.664362 168.221483,105.814848 169.307946,106.99001 C169.807292,110.462949 170.152446,121 170.152446,121 L180,112.883736 Z" id="Fill-104" fill="#FF7878" mask="url(#mask-4)"></path>
                <line x1="164" y1="93" x2="173" y2="97" id="Stroke-105" stroke="#B83C3C" mask="url(#mask-4)"></line>
                <line x1="170" y1="107" x2="174" y2="155" id="Stroke-106" stroke="#B83C3C" mask="url(#mask-4)"></line>
                <path d="M91.9142548,93 C91.9142548,93 104.284297,100.986736 102.844199,120.024375 C101.970472,131.585275 93.5178783,137.438539 93.5178783,137.438539 L90.1572517,153.548049 L122.081115,128.658344 C122.081115,128.658344 120.578352,124.623925 123.320686,120.170602 C125.556329,116.538306 127.619495,115.487751 127.910737,116.365711 C128.202576,117.243671 125.725226,121.487841 125.725226,121.487841 C125.725226,121.487841 129.43976,119.249494 130.706186,112.652511 C130.839871,111.952541 131.711808,111.704435 132.186271,112.234806 L137.496669,118.165978 C137.903096,118.61964 138.07796,119.233912 137.967551,119.833801 C137.478765,122.476669 135.47349,129.757441 127.910737,132.901915 C127.910737,132.901915 108.452405,162.397162 100.123947,173.780073 C86.1335713,192.901614 67.8682585,187.828625 66.1190138,170.658373 C65.1623304,161.25971 70.1999878,133.048142 73.1147987,121.341614 C76.0290128,109.633888 81.2755531,96.0240165 91.9142548,93" id="Fill-107" fill="#FF7878" mask="url(#mask-4)"></path>
                <path d="M131,122 C131,122 133.214706,118.95349 134,114" id="Stroke-108" stroke="#B83C3C" mask="url(#mask-4)"></path>
                <path d="M132,124 C132,124 134.214706,120.952935 135,116" id="Stroke-109" stroke="#B83C3C" mask="url(#mask-4)"></path>
                <path d="M134,125 C134,125 136.186802,122.090754 137,117" id="Stroke-110" stroke="#B83C3C" mask="url(#mask-4)"></path>
                <path d="M102,124.180125 L99.9452419,121.629973 C99.0338212,120.499444 97.3106925,120.966441 97.0093131,122.425731 L94,137 C94,137 99.8113577,132.693051 102,124.180125" id="Fill-111" fill="#FF4747" mask="url(#mask-4)"></path>
                <line x1="91" y1="154" x2="77" y2="165" id="Stroke-112" stroke="#B83C3C" mask="url(#mask-4)"></line>
                <path d="M133.533724,72.1081051 L131.674279,86.9011905 L140,88.1088253 C140,88.1088253 138.518329,91.5466178 136.324655,95.5879338 C133.21244,101.322877 126.124779,103.634131 120.254584,100.773418 C115.002831,98.2135845 108.533612,94.2974394 103,88.6823784 L108.986116,87.2261648 C111.818827,86.5368433 114.002497,84.2808287 114.596224,81.4301054 L117.80965,66 L133.533724,72.1081051 Z" id="Fill-113" fill="#FF7878" mask="url(#mask-4)"></path>
                <path d="M118,67 C118,67 119.317689,80.3669183 132.53413,84 L134,71.9627178 L118,67 Z" id="Fill-114" fill="#FF4747" mask="url(#mask-4)"></path>
                <line x1="117" y1="85" x2="123" y2="93" id="Stroke-115" stroke="#B83C3C" mask="url(#mask-4)"></line>
                <path d="M141.923109,50.9867354 C140.676257,44.1594684 134.956795,39 128.088483,39 C120.307465,39 114,45.6203801 114,53.7875723 C114,59.159372 116.808959,62.6498319 116.808959,62.6498319 C117.319625,67.5038094 121.324075,74.3843104 129.112767,74.9547617 C140.554641,75.793198 140.927752,64.6993428 140.927752,64.6993428 L140.561726,63.4489476 C139.908781,61.217352 139.952468,58.8345233 140.689245,56.6307546 C141.016898,55.6495542 141.37643,54.5739844 141.710577,53.5746361 C141.988049,52.743459 142.081327,51.8505788 141.923109,50.9867354" id="Fill-116" fill="#FF7878" mask="url(#mask-4)"></path>
                <path d="M141.930089,51.0481402 C140.682925,44.185899 134.962034,39 128.092005,39 C120.309042,39 114,45.6542946 114,53.8633251 C114,57.7778307 115.47333,60.6890845 116.285876,62 L119.148684,61.4983742 C119.148684,61.4983742 123.427542,57.9644963 124.868984,53.3580511 C125.466584,51.4488328 127.350911,50.2893172 129.28366,50.5398261 L141.991502,52.1815106 C142.01158,51.8033151 141.997998,51.4232955 141.930089,51.0481402" id="Fill-117" fill="#472D1C" mask="url(#mask-4)"></path>
                <path d="M134.509097,58 L133.85097,61.2390715 C133.85097,61.2390715 136.18806,61.3873983 135.987832,62.4618631 C135.787603,63.536328 133,64 133,64" id="Stroke-118" stroke="#B83C3C" stroke-width="0.776" mask="url(#mask-4)"></path>
                <path d="M134.911863,67.8852732 C134.632227,69.2492353 133.773978,70.1823717 132.994204,69.969831 C132.214429,69.7566521 131.808792,68.4782169 132.088427,67.1142549 C132.36751,65.7502928 133.22576,64.8171564 134.004981,65.0303353 C134.785308,65.2428759 135.190946,66.5213111 134.911863,67.8852732" id="Fill-119" fill="#FFD9C2" mask="url(#mask-4)"></path>
                <path d="M131.945069,58.6625088 C131.765055,59.4859162 131.195781,60.080978 130.674202,59.991003 C130.151855,59.9017097 129.874911,59.1607793 130.054924,58.337372 C130.234938,57.5139646 130.804982,56.9195844 131.32656,57.0088778 C131.848138,57.0988527 132.125083,57.8391014 131.945069,58.6625088" id="Fill-120" fill="#2E2723" mask="url(#mask-4)"></path>
                <path d="M137.944992,58.6625088 C137.764986,59.4859162 137.195734,60.080978 136.674176,59.991003 C136.151849,59.9017097 135.874916,59.1607793 136.054922,58.337372 C136.234929,57.5139646 136.80495,56.9195844 137.326508,57.0088778 C137.848835,57.0988527 138.124999,57.8391014 137.944992,58.6625088" id="Fill-121" fill="#2E2723" mask="url(#mask-4)"></path>
                <line x1="128" y1="55.5" x2="132" y2="55.5" id="Stroke-122" stroke="#472D1C" stroke-width="2" mask="url(#mask-4)"></line>
                <line x1="137" y1="56" x2="140" y2="58" id="Stroke-123" stroke="#472D1C" stroke-width="2" mask="url(#mask-4)"></line>
                <path d="M119.845826,64.0959621 C119.240461,66.2197091 117.027787,67.4508748 114.904039,66.8460626 C112.780291,66.2401457 111.549125,64.0280242 112.153937,61.9037249 C112.759302,59.7799778 114.971977,58.5488121 117.095725,59.1541767 C119.220025,59.7595412 120.451191,61.972215 119.845826,64.0959621" id="Fill-124" fill="#FF7878" mask="url(#mask-4)"></path>
                <path d="M114,61.709837 C114.385944,60.4594157 115.79567,59.7342749 117.149281,60.0907977 C118.502892,60.4473204 119.287251,61.7495786 118.90193,63" id="Stroke-125" stroke="#B83C3C" stroke-width="0.776" mask="url(#mask-4)"></path>
                <path d="M119,67.5 C119,68.3281902 118.32819,69 117.5,69 C116.671184,69 116,68.3281902 116,67.5 C116,66.6711843 116.671184,66 117.5,66 C118.32819,66 119,66.6711843 119,67.5" id="Fill-126" fill="#3A3B99" mask="url(#mask-4)"></path>
                <path d="M178.706133,198.707261 C173.926778,203.486082 166.327726,203.761228 161.218485,199.542526 L179.540984,181.224428 C183.761315,186.333056 183.484874,193.929668 178.706133,198.707261 M160.293944,180.300109 C162.753039,177.841605 166.023027,176.487984 169.500038,176.487984 C172.559317,176.487984 175.456417,177.537593 177.783435,179.463616 L159.459092,197.783556 C155.239376,192.675542 155.515203,185.078316 160.293944,180.300109 M180.464911,178.541139 C177.536481,175.612798 173.642351,174 169.500038,174 C165.357726,174 161.463596,175.612798 158.534551,178.541139 C152.488483,184.585755 152.488483,194.421615 158.534551,200.466845 C161.5582,203.489767 165.528505,205 169.500038,205 C173.470958,205 177.442491,203.488539 180.464911,200.466845 L180.465525,200.466231 C186.511594,194.421615 186.511594,184.585755 180.464911,178.541139" id="Fill-127" fill="#000000" mask="url(#mask-4)"></path>
                <path d="M169.499731,174.487935 C166.022071,174.487935 162.753279,175.842143 160.29416,178.299984 C155.218041,183.375347 155.218041,191.632637 160.29416,196.708 C165.36905,201.78152 173.629798,201.782748 178.705917,196.707386 C183.782036,191.632637 183.782036,183.375347 178.705917,178.300598 C176.246798,175.842143 172.977392,174.487935 169.499731,174.487935 M169.499731,203 C165.528158,203 161.557814,201.489183 158.534136,198.466935 C152.488621,192.42121 152.488621,182.58616 158.534136,176.541663 C161.463209,173.612766 165.357378,172 169.499731,172 C173.642085,172 177.536253,173.612766 180.465327,176.541663 C186.511455,182.58616 186.511455,192.42121 180.465941,198.466321 L180.465327,198.466935 C177.442877,201.488569 173.47069,203 169.499731,203" id="Fill-128" fill="#FF4747" mask="url(#mask-4)"></path>
                <polygon id="Fill-129" fill="#FF4747" mask="url(#mask-4)" points="161.684706 198 160 196.314706 179.315294 177 181 178.684706"></polygon>
                <path d="M121.634532,279 L141,279 L118.490928,236.003509 C117.509104,234.1293 114.695911,235.085784 115.026909,237.181822 L121.634532,279 Z" id="Fill-130" fill="#1A5470" mask="url(#mask-4)"></path>
            </g>
        </g>
    </g>
</svg>