<?xml version="1.0" encoding="UTF-8"?>
<svg width="39px" height="39px" viewBox="0 0 39 39" version="1.1" xmlns="http://www.w3.org/2000/svg" xmlns:xlink="http://www.w3.org/1999/xlink">
    <title>Group 2</title>
    <g id="Hi-Fid-Iteration-6" stroke="none" stroke-width="1" fill="none" fill-rule="evenodd">
        <g id="Loading-Page-Copy-4" transform="translate(-168.000000, -115.000000)">
            <g id="Group-2" transform="translate(168.000000, 115.000000)">
                <circle id="Oval" fill="#26292B" cx="19.5" cy="19.5" r="19.5"></circle>
                <g id="􀇳" transform="translate(6.000000, 11.000000)" fill="#FFE14D" fill-rule="nonzero">
                    <path d="M3.36829559,17 L23.6317044,17 C25.8629321,17 27,15.8810127 27,13.664557 L27,3.32468354 C27,1.11898734 25.8629321,0 23.6317044,0 L3.36829559,0 C1.11561383,0 0,1.10822785 0,3.32468354 L0,13.664557 C0,15.8810127 1.11561383,17 3.36829559,17 Z M3.3897497,15.2677215 C2.3170441,15.2677215 1.72705602,14.6867089 1.72705602,13.5677215 L1.72705602,3.42151899 C1.72705602,2.30253165 2.3170441,1.73227848 3.3897497,1.73227848 L23.5995232,1.73227848 C24.6615018,1.73227848 25.272944,2.30253165 25.272944,3.42151899 L25.272944,13.5677215 C25.272944,14.6867089 24.6615018,15.2677215 23.5995232,15.2677215 L3.3897497,15.2677215 Z M4.35518474,5.99303797 L5.3420739,5.99303797 C5.64243147,5.99303797 5.82479142,5.81012658 5.82479142,5.51962025 L5.82479142,4.52974684 C5.82479142,4.22848101 5.64243147,4.04556962 5.3420739,4.04556962 L4.35518474,4.04556962 C4.06555423,4.04556962 3.88319428,4.22848101 3.88319428,4.52974684 L3.88319428,5.51962025 C3.88319428,5.81012658 4.06555423,5.99303797 4.35518474,5.99303797 Z M7.80929678,5.99303797 L8.79618594,5.99303797 C9.08581645,5.99303797 9.2681764,5.81012658 9.2681764,5.51962025 L9.2681764,4.52974684 C9.2681764,4.22848101 9.08581645,4.04556962 8.79618594,4.04556962 L7.80929678,4.04556962 C7.50893921,4.04556962 7.32657926,4.22848101 7.32657926,4.52974684 L7.32657926,5.51962025 C7.32657926,5.81012658 7.50893921,5.99303797 7.80929678,5.99303797 Z M11.2634088,5.99303797 L12.2395709,5.99303797 C12.5399285,5.99303797 12.7222884,5.81012658 12.7222884,5.51962025 L12.7222884,4.52974684 C12.7222884,4.22848101 12.5399285,4.04556962 12.2395709,4.04556962 L11.2634088,4.04556962 C10.9630513,4.04556962 10.7806913,4.22848101 10.7806913,4.52974684 L10.7806913,5.51962025 C10.7806913,5.81012658 10.9630513,5.99303797 11.2634088,5.99303797 Z M14.7067938,5.99303797 L15.693683,5.99303797 C15.9940405,5.99303797 16.1764005,5.81012658 16.1764005,5.51962025 L16.1764005,4.52974684 C16.1764005,4.22848101 15.9940405,4.04556962 15.693683,4.04556962 L14.7067938,4.04556962 C14.4171633,4.04556962 14.2348033,4.22848101 14.2348033,4.52974684 L14.2348033,5.51962025 C14.2348033,5.81012658 14.4171633,5.99303797 14.7067938,5.99303797 Z M18.1609058,5.99303797 L19.147795,5.99303797 C19.4374255,5.99303797 19.6197855,5.81012658 19.6197855,5.51962025 L19.6197855,4.52974684 C19.6197855,4.22848101 19.4374255,4.04556962 19.147795,4.04556962 L18.1609058,4.04556962 C17.8605483,4.04556962 17.6781883,4.22848101 17.6781883,4.52974684 L17.6781883,5.51962025 C17.6781883,5.81012658 17.8605483,5.99303797 18.1609058,5.99303797 Z M21.6150179,5.99303797 L22.59118,5.99303797 C22.8915375,5.99303797 23.0738975,5.81012658 23.0738975,5.51962025 L23.0738975,4.52974684 C23.0738975,4.22848101 22.8915375,4.04556962 22.59118,4.04556962 L21.6150179,4.04556962 C21.3146603,4.04556962 21.1323004,4.22848101 21.1323004,4.52974684 L21.1323004,5.51962025 C21.1323004,5.81012658 21.3146603,5.99303797 21.6150179,5.99303797 Z M4.35518474,9.45759494 L5.3420739,9.45759494 C5.64243147,9.45759494 5.82479142,9.27468354 5.82479142,8.97341772 L5.82479142,7.9943038 C5.82479142,7.69303797 5.64243147,7.51012658 5.3420739,7.51012658 L4.35518474,7.51012658 C4.06555423,7.51012658 3.88319428,7.69303797 3.88319428,7.9943038 L3.88319428,8.97341772 C3.88319428,9.27468354 4.06555423,9.45759494 4.35518474,9.45759494 Z M7.80929678,9.45759494 L8.79618594,9.45759494 C9.08581645,9.45759494 9.2681764,9.27468354 9.2681764,8.97341772 L9.2681764,7.9943038 C9.2681764,7.69303797 9.08581645,7.51012658 8.79618594,7.51012658 L7.80929678,7.51012658 C7.50893921,7.51012658 7.32657926,7.69303797 7.32657926,7.9943038 L7.32657926,8.97341772 C7.32657926,9.27468354 7.50893921,9.45759494 7.80929678,9.45759494 Z M11.2634088,9.45759494 L12.2395709,9.45759494 C12.5399285,9.45759494 12.7222884,9.27468354 12.7222884,8.97341772 L12.7222884,7.9943038 C12.7222884,7.69303797 12.5399285,7.51012658 12.2395709,7.51012658 L11.2634088,7.51012658 C10.9630513,7.51012658 10.7806913,7.69303797 10.7806913,7.9943038 L10.7806913,8.97341772 C10.7806913,9.27468354 10.9630513,9.45759494 11.2634088,9.45759494 Z M14.7067938,9.45759494 L15.693683,9.45759494 C15.9940405,9.45759494 16.1764005,9.27468354 16.1764005,8.97341772 L16.1764005,7.9943038 C16.1764005,7.69303797 15.9940405,7.51012658 15.693683,7.51012658 L14.7067938,7.51012658 C14.4171633,7.51012658 14.2348033,7.69303797 14.2348033,7.9943038 L14.2348033,8.97341772 C14.2348033,9.27468354 14.4171633,9.45759494 14.7067938,9.45759494 Z M18.1609058,9.45759494 L19.147795,9.45759494 C19.4374255,9.45759494 19.6197855,9.27468354 19.6197855,8.97341772 L19.6197855,7.9943038 C19.6197855,7.69303797 19.4374255,7.51012658 19.147795,7.51012658 L18.1609058,7.51012658 C17.8605483,7.51012658 17.6781883,7.69303797 17.6781883,7.9943038 L17.6781883,8.97341772 C17.6781883,9.27468354 17.8605483,9.45759494 18.1609058,9.45759494 Z M21.6150179,9.45759494 L22.59118,9.45759494 C22.8915375,9.45759494 23.0738975,9.27468354 23.0738975,8.97341772 L23.0738975,7.9943038 C23.0738975,7.69303797 22.8915375,7.51012658 22.59118,7.51012658 L21.6150179,7.51012658 C21.3146603,7.51012658 21.1323004,7.69303797 21.1323004,7.9943038 L21.1323004,8.97341772 C21.1323004,9.27468354 21.3146603,9.45759494 21.6150179,9.45759494 Z M4.35518474,12.9221519 L5.3420739,12.9221519 C5.64243147,12.9221519 5.82479142,12.7392405 5.82479142,12.4379747 L5.82479142,11.4481013 C5.82479142,11.1575949 5.64243147,10.9746835 5.3420739,10.9746835 L4.35518474,10.9746835 C4.06555423,10.9746835 3.88319428,11.1575949 3.88319428,11.4481013 L3.88319428,12.4379747 C3.88319428,12.7392405 4.06555423,12.9221519 4.35518474,12.9221519 Z M7.91656734,12.9221519 L19.0405244,12.9221519 C19.4052443,12.9221519 19.6197855,12.706962 19.6197855,12.3303797 L19.6197855,11.5556962 C19.6197855,11.1898734 19.4052443,10.9746835 19.0405244,10.9746835 L7.91656734,10.9746835 C7.54112038,10.9746835 7.32657926,11.1898734 7.32657926,11.5556962 L7.32657926,12.3303797 C7.32657926,12.706962 7.54112038,12.9221519 7.91656734,12.9221519 Z M21.6150179,12.9221519 L22.59118,12.9221519 C22.8915375,12.9221519 23.0738975,12.7392405 23.0738975,12.4379747 L23.0738975,11.4481013 C23.0738975,11.1575949 22.8915375,10.9746835 22.59118,10.9746835 L21.6150179,10.9746835 C21.3146603,10.9746835 21.1323004,11.1575949 21.1323004,11.4481013 L21.1323004,12.4379747 C21.1323004,12.7392405 21.3146603,12.9221519 21.6150179,12.9221519 Z"></path>
                </g>
            </g>
        </g>
    </g>
</svg>