<?xml version="1.0" encoding="UTF-8"?>
<svg width="36px" height="36px" viewBox="0 0 36 36" version="1.1" xmlns="http://www.w3.org/2000/svg" xmlns:xlink="http://www.w3.org/1999/xlink">
    <title>Group 6</title>
    <defs>
        <linearGradient x1="160.365117%" y1="-96.9809474%" x2="21.0264066%" y2="77.175269%" id="linearGradient-1">
            <stop stop-color="#FF7000" offset="0%"></stop>
            <stop stop-color="#FFE14D" offset="100%"></stop>
        </linearGradient>
    </defs>
    <g id="Hi-Fid-Keyboard-Extension-" stroke="none" stroke-width="1" fill="none" fill-rule="evenodd">
        <g id="Main-Menu-4-Copy-4" transform="translate(-12.000000, -496.000000)">
            <g id="Group-6" transform="translate(12.000000, 496.000000)">
                <rect id="Rectangle-Copy-121" fill="url(#linearGradient-1)" x="0" y="0" width="36" height="36" rx="5.66801619"></rect>
                <g id="Group-20-Copy-16" transform="translate(9.290323, 5.806452)" fill="#26292B" fill-rule="nonzero">
                    <g id="Group-19">
                        <path d="M18.5801087,8.07597409 C18.596035,9.47588904 18.2570696,10.855827 17.5967569,12.0792285 C16.9403571,13.2798618 15.9507657,14.2429412 14.6279827,14.9684668 C13.3051998,15.6939923 11.6870785,16.0550399 9.7736189,16.0516095 L6.54403186,16.0516095 C3.96710094,16.0516095 0.0361893594,16.7063835 0.0361893594,18.3967036 L0.00623955692,17.2711099 C0.00546414061,16.7438688 0.250045076,16.2482331 0.663887304,15.938407 L3.35188208,13.9470709 C3.6101898,13.7550279 3.70019043,13.4011838 3.56652233,13.1031972 L5.89511948,11.376858 C7.59754917,13.4671006 10.5886962,13.8194329 12.7046723,12.1789669 C14.8206484,10.5385009 15.3221455,7.47840456 13.846365,5.21244623 C12.3705846,2.9464879 9.4331546,2.26637849 7.15910273,3.66413018 C4.88505085,5.06188186 4.06891587,8.04912937 5.30111506,10.4648055 L2.94381602,12.2078678 C2.71316203,11.9812409 2.3585398,11.9563656 2.10022992,12.1486937 L0.214640266,13.5457163 C0.173131275,13.5760225 0.118687453,13.5799222 0.0735112797,13.5558253 C0.0283351064,13.5317284 0,13.4836618 0,13.4312274 L0,9.6479461 C0,4.3195326 4.1903073,0 9.3593133,0 L9.76862727,0 C11.6596245,0 13.2665146,0.343038084 14.5892976,1.02911425 C15.9120805,1.71519042 16.9070795,2.66626351 17.5742945,3.88233351 C18.2456693,5.09754592 18.5809407,6.49542611 18.5801087,8.07597409 Z" id="Path-Copy-3"></path>
                        <path d="M6.54403198,17.3643501 L6.54403198,18.8076888 C6.54436287,20.5953148 5.85570786,22.3098411 4.62959809,23.5740043 C3.40348832,24.8381674 1.74038612,25.5483871 0.00623219405,25.5483871 L0.00623219405,19.0340939 C1.47253717e-08,17.3437737 3.9608614,17.3643501 6.54403198,17.3643501 Z" id="Path-Copy-4"></path>
                    </g>
                </g>
            </g>
        </g>
    </g>
</svg>