<?xml version="1.0" encoding="UTF-8"?>
<svg width="101px" height="123px" viewBox="0 0 101 123" version="1.1" xmlns="http://www.w3.org/2000/svg" xmlns:xlink="http://www.w3.org/1999/xlink">
    <title>Group 8</title>
    <g id="Hi-Fid-Iteration-6" stroke="none" stroke-width="1" fill="none" fill-rule="evenodd">
        <g id="Search-Engine-Not-Found-Copy" transform="translate(-143.000000, -234.000000)">
            <g id="Group-8" transform="translate(143.000000, 234.000000)">
                <rect id="Rectangle" fill-opacity="0.8" fill="#000000" x="0" y="2.84217094e-14" width="87" height="111" rx="6"></rect>
                <g id="Group-7" transform="translate(34.000000, 56.000000)">
                    <circle id="Oval-Copy" fill="#FFFFFF" cx="30.5" cy="30.5" r="30.5"></circle>
                    <rect id="Rectangle" fill-opacity="0.8" fill="#000000" transform="translate(53.403806, 53.903806) rotate(45.000000) translate(-53.403806, -53.903806) " x="39.9038059" y="49.4038059" width="27" height="9" rx="4.5"></rect>
                    <circle id="Oval" fill-opacity="0.8" fill="#000000" cx="31" cy="31" r="23"></circle>
                    <circle id="Oval" fill="#FFFFFF" cx="31" cy="31" r="16"></circle>
                    <path d="M26.0132211,22.7423837 L31.1005051,27.8294949 L36.1877891,22.7423837 C37.3116408,21.618532 39.1337645,21.618532 40.2576163,22.7423837 C41.381468,23.8662355 41.381468,25.6883592 40.2576163,26.8122109 L35.1705051,31.8994949 L40.2576163,36.9867789 C41.381468,38.1106307 41.381468,39.9327544 40.2576163,41.0566061 C39.1337645,42.1804579 37.3116408,42.1804579 36.1877891,41.0566061 L31.1005051,35.9694949 L26.0132211,41.0566061 C24.8893693,42.1804579 23.0672456,42.1804579 21.9433939,41.0566061 C20.8195421,39.9327544 20.8195421,38.1106307 21.9433939,36.9867789 L27.0305051,31.8994949 L21.9433939,26.8122109 C20.8195421,25.6883592 20.8195421,23.8662355 21.9433939,22.7423837 C23.0672456,21.618532 24.8893693,21.618532 26.0132211,22.7423837 Z" id="Combined-Shape" fill-opacity="0.676600743" fill="#DE1A1A"></path>
                </g>
                <g id="Group-4" transform="translate(22.000000, 22.000000)" fill="#FFFFFF">
                    <rect id="Rectangle" x="0" y="0" width="46" height="7" rx="3.5"></rect>
                    <rect id="Rectangle-Copy" x="0" y="18" width="46" height="7" rx="3.5"></rect>
                </g>
            </g>
        </g>
    </g>
</svg>